<svg xmlns="http://www.w3.org/2000/svg" width="408.09" height="444.46" style=""><rect id="backgroundrect" width="100%" height="100%" x="0" y="0" fill="none" stroke="none"/><defs><style>.cls-1{fill-rule:evenodd;}</style></defs><title>Logo</title><g class="currentLayer" style=""><title>Layer 1</title><g id="typografia" class="selected" fill-opacity="1" fill="#1a967f"><path d="M144.7299963378906,387.80999999999995 l7.2,-34.35 h24 l-1.22,5.74 h-17 L156.08999633789062,367.45000000000005 H172.68999633789065 l-1.19,5.74 H154.8599963378906 l-3,14.620000000000001 z" id="svg_1" fill="#1a967f"/><path d="M174.08999633789062,387.80999999999995 l7.19,-34.35 H193.08999633789062 a40.42,40.42 0 0 1 5.34,0.23 a11.07,11.07 0 0 1 4.29,1.4100000000000001 a7,7 0 0 1 2.67,2.81 a8.29,8.29 0 0 1 0.91,3.89 a8,8 0 0 1 -1.59,5 a9.75,9.75 0 0 1 -4.92,3.17 a7.84,7.84 0 0 1 4.14,2.59 a6.58,6.58 0 0 1 1.48,4.21 a10.81,10.81 0 0 1 -1.75,5.87 a10,10 0 0 1 -4.86,4 a23.78,23.78 0 0 1 -8.46,1.21 zm8.22,-5.53 h6.83 a19.33,19.33 0 0 0 5.75,-0.55 a4.79,4.79 0 0 0 2.34,-1.81 a4.61,4.61 0 0 0 0.8800000000000001,-2.68 a3.59,3.59 0 0 0 -1.26,-2.8200000000000003 a6.39,6.39 0 0 0 -4.22,-1.11 h-8.44 zm3.12,-14.95 h5.39 a18.49,18.49 0 0 0 5.23,-0.52 a4.35,4.35 0 0 0 3.19,-4.19 a3.14,3.14 0 0 0 -0.7500000000000001,-2.16 a3.77,3.77 0 0 0 -2.14,-1.12 a27.3,27.3 0 0 0 -3.72,-0.14 h-5.49 z" id="svg_2" fill="#1a967f"/><path d="M231.30999633789065,380.22 H217.68999633789065 l-4.12,7.59 h-7.27 l19.43,-34.35 h7.85 l5.58,34.35 h-6.7 zm-0.8700000000000001,-5.72 l-2,-13.83 l-8.3,13.83 z" id="svg_3" fill="#1a967f"/><path d="M243.65999633789068,387.80999999999995 l7.2,-34.35 h7.05 l-6,28.61 h17.49 l-1.2,5.74 z" id="svg_4" fill="#1a967f"/><path d="M272.9799963378906,387.80999999999995 l7.2,-34.35 h7 l-6,28.61 h17.49 l-1.2,5.74 z" id="svg_5" fill="#1a967f"/></g><g id="logo" class="" fill="#1a967f" fill-opacity="1"><path class="cls-1" d="M-0.0000036621093499888957,444.46000000000004 l80.49,-68.38 l54.29,-307.7 H339.70999633789063 l-12,68.38 H190.9899963378906 l-12,68.38 H315.56999633789064 l-12,68.38 H166.84999633789062 l-12,68.37 H291.4999963378906 q40.22,-34.15 80.42,-68.37 l15,-85.48 h0 L355.8499963378906,171 l37.2,-17.1 l15,-85.47 L351.7499963378906,0 H78.3699963378906 z" id="svg_6" fill="#1a967f" fill-opacity="1"/></g></g></svg>