<svg xmlns="http://www.w3.org/2000/svg" viewBox="0 0 408.09 444.46"><defs><style>.cls-1{fill-rule:evenodd;}</style></defs><title>Logo</title><g id="typografia"><path d="M503.64,1010.81l7.2-34.35h24l-1.22,5.74h-17L515,990.45H531.6l-1.19,5.74H513.77l-3,14.62Z" transform="translate(-358.91 -623)"/><path d="M533,1010.81l7.19-34.35H552a40.42,40.42,0,0,1,5.34.23,11.07,11.07,0,0,1,4.29,1.41,7,7,0,0,1,2.67,2.81,8.29,8.29,0,0,1,.91,3.89,8,8,0,0,1-1.59,5,9.75,9.75,0,0,1-4.92,3.17,7.84,7.84,0,0,1,4.14,2.59,6.58,6.58,0,0,1,1.48,4.21,10.81,10.81,0,0,1-1.75,5.87,10,10,0,0,1-4.86,4,23.78,23.78,0,0,1-8.46,1.21Zm8.22-5.53h6.83a19.33,19.33,0,0,0,5.75-.55,4.79,4.79,0,0,0,2.34-1.81,4.61,4.61,0,0,0,.88-2.68,3.59,3.59,0,0,0-1.26-2.82,6.39,6.39,0,0,0-4.22-1.11h-8.44Zm3.12-14.95h5.39a18.49,18.49,0,0,0,5.23-.52,4.35,4.35,0,0,0,3.19-4.19,3.14,3.14,0,0,0-.75-2.16,3.77,3.77,0,0,0-2.14-1.12,27.3,27.3,0,0,0-3.72-.14h-5.49Z" transform="translate(-358.91 -623)"/><path d="M590.22,1003.22H576.6l-4.12,7.59h-7.27l19.43-34.35h7.85l5.58,34.35h-6.7Zm-.87-5.72-2-13.83-8.3,13.83Z" transform="translate(-358.91 -623)"/><path d="M602.57,1010.81l7.2-34.35h7.05l-6,28.61h17.49l-1.2,5.74Z" transform="translate(-358.91 -623)"/><path d="M631.89,1010.81l7.2-34.35h7l-6,28.61h17.49l-1.2,5.74Z" transform="translate(-358.91 -623)"/></g><g id="logo"><path class="cls-1" d="M358.91,1067.46l80.49-68.38,54.29-307.7H698.62l-12,68.38H549.9l-12,68.38H674.48l-12,68.38H525.76l-12,68.37H650.41q40.22-34.15,80.42-68.37l15-85.48h0L714.76,794l37.2-17.1,15-85.47L710.66,623H437.28Z" transform="translate(-358.91 -623)"/></g></svg>